<svg xmlns="http://www.w3.org/2000/svg" width="20.807" height="16.386" viewBox="0 0 20.807 16.386">
  <g id="icon2-white" transform="translate(-1.597 -3.807)">
    <path id="Path_1049" data-name="Path 1049" d="M20.274,9.869,16.833,4.954l1.638-1.147,3.441,4.915Z" fill="#fff"/>
    <path id="Path_1050" data-name="Path 1050" d="M18.39,12.409,16.669,9.951,8.478,15.687,10.2,18.144,8.56,19.292,3.972,12.738,5.61,11.591l1.721,2.458,8.192-5.736L13.8,5.855,15.44,4.708l4.589,6.553Z" fill="#fff"/>
    <path id="Path_1051" data-name="Path 1051" d="M20.765,7.083,22.4,5.936,21.256,4.3,19.618,5.445Z" fill="#fff"/>
    <path id="Path_1052" data-name="Path 1052" d="M7.168,19.046,3.726,14.131,2.088,15.278l3.441,4.915Z" fill="#fff"/>
    <path id="Path_1053" data-name="Path 1053" d="M4.382,18.555,2.744,19.7,1.6,18.064l1.638-1.147Z" fill="#fff"/>
  </g>
</svg>
